<?xml version="1.0" encoding="UTF-8" standalone="no"?>
<!DOCTYPE svg PUBLIC "-//W3C//DTD SVG 1.1//EN" "http://www.w3.org/Graphics/SVG/1.1/DTD/svg11.dtd">
<svg width="100%" height="100%" viewBox="0 0 400 400" version="1.1" xmlns="http://www.w3.org/2000/svg" xmlns:xlink="http://www.w3.org/1999/xlink" xml:space="preserve" xmlns:serif="http://www.serif.com/" style="fill-rule:evenodd;clip-rule:evenodd;stroke-linejoin:round;stroke-miterlimit:1.41421;">
    <g transform="matrix(3.91304,0,0,3.91304,6.30435,6.30484)">
        <path d="M49.501,31.5C39.575,31.5 31.5,39.574 31.5,49.5C31.5,59.426 39.575,67.5 49.501,67.5C59.426,67.5 67.5,59.426 67.5,49.5C67.5,39.574 59.426,31.5 49.501,31.5ZM49.501,59.5C43.986,59.5 39.5,55.014 39.5,49.5C39.5,43.986 43.986,39.5 49.501,39.5C55.012,39.5 59.5,43.986 59.5,49.5C59.5,55.014 55.012,59.5 49.501,59.5ZM87.5,15.5L49.501,15.5C47.291,15.5 45.5,17.291 45.5,19.5C45.5,21.709 47.291,23.5 49.501,23.5L87.5,23.5L87.5,75.5L77.156,75.5L78.328,74.328C79.891,72.765 79.891,70.234 78.328,68.672C76.765,67.11 74.23,67.109 72.672,68.672L64.672,76.672C63.109,78.235 63.109,80.766 64.672,82.328L72.672,90.328C73.453,91.109 74.477,91.5 75.5,91.5C76.523,91.5 77.547,91.109 78.328,90.328C79.891,88.765 79.891,86.234 78.328,84.672L77.156,83.5L87.5,83.5C91.91,83.5 95.5,79.912 95.5,75.5L95.5,23.5C95.5,19.088 91.91,15.5 87.5,15.5ZM49.501,75.5L11.5,75.5L11.5,23.5L21.844,23.5L20.672,24.672C19.109,26.235 19.109,28.766 20.672,30.328C21.452,31.109 22.477,31.5 23.5,31.5C24.523,31.5 25.548,31.109 26.328,30.328L34.328,22.328C35.891,20.765 35.891,18.234 34.328,16.672L26.328,8.672C24.767,7.109 22.232,7.109 20.672,8.672C19.109,10.235 19.109,12.766 20.672,14.328L21.844,15.5L11.5,15.5C7.089,15.5 3.5,19.088 3.5,23.5L3.5,75.5C3.5,79.912 7.089,83.5 11.5,83.5L49.501,83.5C51.707,83.5 53.5,81.709 53.5,79.5C53.5,77.291 51.707,75.5 49.501,75.5Z" style="fill:white;fill-rule:nonzero;"/>
    </g>
</svg>
