<?xml version="1.0" encoding="UTF-8" standalone="no"?>
<!DOCTYPE svg PUBLIC "-//W3C//DTD SVG 1.1//EN" "http://www.w3.org/Graphics/SVG/1.1/DTD/svg11.dtd">
<svg width="100%" height="100%" viewBox="0 0 1500 1500" version="1.1" xmlns="http://www.w3.org/2000/svg" xmlns:xlink="http://www.w3.org/1999/xlink" xml:space="preserve" xmlns:serif="http://www.serif.com/" style="fill-rule:evenodd;clip-rule:evenodd;stroke-linejoin:round;stroke-miterlimit:1.41421;">
    <g transform="matrix(2.63056,0,0,2.57686,-1534.22,-1536.53)">
        <rect x="898.75" y="918.378" width="114.044" height="116.421" style="fill:rgb(188,35,27);"/>
    </g>
    <g transform="matrix(1.25,0,0,1.25,-9.29897,-5.91756)">
        <path d="M543.439,540.734L303.439,540.734L303.439,300.734L543.439,300.734L543.439,540.734ZM508.439,335.734L338.439,335.734L338.439,505.734L508.439,505.734L508.439,335.734ZM473.439,370.734L473.439,470.734L373.439,470.734L373.439,370.734L473.439,370.734Z" style="fill:white;fill-rule:nonzero;"/>
    </g>
    <g transform="matrix(1.25,0,0,1.25,450.701,-5.91756)">
        <path d="M543.439,540.734L303.439,540.734L303.439,300.734L543.439,300.734L543.439,540.734ZM508.439,335.734L338.439,335.734L338.439,505.734L508.439,505.734L508.439,335.734ZM473.439,370.734L473.439,470.734L373.439,470.734L373.439,370.734L473.439,370.734Z" style="fill:white;fill-rule:nonzero;"/>
    </g>
    <g transform="matrix(1.25,0,0,1.25,-9.29897,454.082)">
        <path d="M543.439,540.734L303.439,540.734L303.439,300.734L543.439,300.734L543.439,540.734ZM508.439,335.734L338.439,335.734L338.439,505.734L508.439,505.734L508.439,335.734ZM473.439,370.734L473.439,470.734L373.439,470.734L373.439,370.734L473.439,370.734Z" style="fill:white;fill-rule:nonzero;"/>
    </g>
    <path d="M266.132,1049.5C266.153,1101.12 266.167,1152.75 266.167,1204.37C266.167,1219.14 278.716,1232.71 294.306,1232.83C346.204,1233.08 398.102,1233.25 450,1233.35L450,1399.7C397.957,1399.65 345.913,1399.58 293.87,1399.5C243.927,1399.26 194.206,1379.06 158.306,1344C121.389,1307.96 99.75,1257.4 99.501,1205.13C99.419,1153.25 99.351,1101.38 99.297,1049.5L266.132,1049.5ZM1399.7,1049.5C1399.65,1101.38 1399.58,1153.25 1399.5,1205.13C1399.26,1255.07 1379.06,1304.79 1344,1340.69C1307.96,1377.61 1257.4,1399.25 1205.13,1399.5C1153.42,1399.58 1101.71,1399.65 1050,1399.7L1050,1232.94C1101.46,1232.88 1152.91,1232.83 1204.37,1232.83C1219.37,1232.83 1232.71,1220.12 1232.83,1204.69C1233.08,1152.96 1233.25,1101.23 1233.35,1049.5L1399.7,1049.5ZM450,99.296L450,266.167L294.632,266.167C279.764,266.191 266.241,278.798 266.167,294.398C266.085,346.099 266.031,397.8 265.998,449.5L99.297,449.5C99.351,397.623 99.419,345.746 99.501,293.87C99.747,242.19 121.388,191.045 158.306,154.997C194.098,120.047 243.532,99.74 293.87,99.501C345.913,99.418 397.957,99.35 450,99.296ZM1050,99.297C1101.71,99.351 1153.42,99.419 1205.13,99.501C1255.07,99.739 1304.79,119.941 1340.69,154.997C1377.61,191.044 1399.25,241.596 1399.5,293.87C1399.58,345.746 1399.65,397.623 1399.7,449.5L1232.94,449.5C1232.88,397.876 1232.83,346.253 1232.83,294.629C1232.83,279.849 1220.07,266.167 1204.37,266.167L1050,266.167L1050,99.297Z" style="fill:white;fill-rule:nonzero;"/>
    <g transform="matrix(1,0,0,1,-8.89834,228.496)">
        <path d="M880.5,663.247L981.818,663.247L981.818,688.76L921.516,841.226L893.073,841.226L953.254,688.76L906.013,688.76L906.013,714.517L880.5,714.517L880.5,663.247Z" style="fill:white;fill-rule:nonzero;"/>
        <path d="M995.856,817.178L1065.31,730.264C1068,726.765 1069.83,723.509 1070.81,720.498C1071.46,717.65 1071.78,714.965 1071.78,712.442C1071.78,705.769 1069.71,699.95 1065.56,694.986C1061.25,690.021 1055.14,687.458 1047.25,687.295C1040.25,687.295 1034.43,689.533 1029.79,694.009C1024.99,698.485 1022.14,704.792 1021.25,712.93L995.856,712.93C996.507,698.119 1001.47,685.871 1010.75,676.187C1020.11,666.747 1031.62,661.945 1045.3,661.783C1060.59,661.945 1073.01,666.828 1082.53,676.431C1092.21,685.952 1097.13,698.037 1097.3,712.686C1097.3,724.405 1093.72,734.821 1086.56,743.936L1029.3,815.713L1097.3,815.713L1097.3,841.226L995.856,841.226L995.856,817.178Z" style="fill:white;fill-rule:nonzero;"/>
    </g>
</svg>
