<?xml version="1.0" encoding="UTF-8" standalone="no"?>
<!DOCTYPE svg PUBLIC "-//W3C//DTD SVG 1.1//EN" "http://www.w3.org/Graphics/SVG/1.1/DTD/svg11.dtd">
<svg width="100%" height="100%" viewBox="0 0 400 400" version="1.1" xmlns="http://www.w3.org/2000/svg" xmlns:xlink="http://www.w3.org/1999/xlink" xml:space="preserve" xmlns:serif="http://www.serif.com/" style="fill-rule:evenodd;clip-rule:evenodd;stroke-linejoin:round;stroke-miterlimit:1.41421;">
    <g transform="matrix(4.09091,0,0,4.09091,-6.59091,-2.5)">
        <path d="M50.5,5.5C26.238,5.5 6.5,25.238 6.5,49.5C6.5,73.762 26.238,93.5 50.5,93.5C74.762,93.5 94.5,73.762 94.5,49.5C94.5,25.238 74.762,5.5 50.5,5.5ZM50.5,85.5C30.648,85.5 14.5,69.35 14.5,49.5C14.5,29.65 30.648,13.5 50.5,13.5C70.35,13.5 86.5,29.65 86.5,49.5C86.5,69.35 70.35,85.5 50.5,85.5ZM63.672,30.674L50.5,43.844L37.328,30.674L31.672,36.33L44.844,49.5L31.672,62.672L37.328,68.328L50.5,55.156L63.672,68.328L69.328,62.672L56.156,49.5L69.328,36.33L63.672,30.674Z" style="fill:white;fill-rule:nonzero;"/>
    </g>
</svg>
